<?xml version="1.0" encoding="UTF-8" standalone="no"?><svg xmlns="http://www.w3.org/2000/svg" id="bottom_bar_top" width="4" height="46" viewBox="0 0 4 46" preserveAspectRatio="xMidYMid meet" rendering="crispEdges"><rect id="1-1" x="0" y="0" width="1" height="1" shape-rendering="crispEdges" style="fill:#d9d9d9;opacity:255;"></rect><rect id="2-1" x="1" y="0" width="1" height="1" shape-rendering="crispEdges" style="fill:#d9d9d9;opacity:255;"></rect><rect id="3-1" x="2" y="0" width="1" height="1" shape-rendering="crispEdges" style="fill:#c7c7c7;opacity:255;"></rect><rect id="4-1" x="3" y="0" width="1" height="1" shape-rendering="crispEdges" style="fill:#c7c7c7;opacity:255;"></rect><rect id="1-2" x="0" y="1" width="1" height="1" shape-rendering="crispEdges" style="fill:#d9d9d9;opacity:255;"></rect><rect id="2-2" x="1" y="1" width="1" height="1" shape-rendering="crispEdges" style="fill:#d9d9d9;opacity:255;"></rect><rect id="3-2" x="2" y="1" width="1" height="1" shape-rendering="crispEdges" style="fill:#c7c7c7;opacity:255;"></rect><rect id="4-2" x="3" y="1" width="1" height="1" shape-rendering="crispEdges" style="fill:#c7c7c7;opacity:255;"></rect><rect id="1-3" x="0" y="2" width="1" height="1" shape-rendering="crispEdges" style="fill:#c7c7c7;opacity:255;"></rect><rect id="2-3" x="1" y="2" width="1" height="1" shape-rendering="crispEdges" style="fill:#c7c7c7;opacity:255;"></rect><rect id="3-3" x="2" y="2" width="1" height="1" shape-rendering="crispEdges" style="fill:#d9d9d9;opacity:255;"></rect><rect id="4-3" x="3" y="2" width="1" height="1" shape-rendering="crispEdges" style="fill:#d9d9d9;opacity:255;"></rect><rect id="1-4" x="0" y="3" width="1" height="1" shape-rendering="crispEdges" style="fill:#c7c7c7;opacity:255;"></rect><rect id="2-4" x="1" y="3" width="1" height="1" shape-rendering="crispEdges" style="fill:#c7c7c7;opacity:255;"></rect><rect id="3-4" x="2" y="3" width="1" height="1" shape-rendering="crispEdges" style="fill:#d9d9d9;opacity:255;"></rect><rect id="4-4" x="3" y="3" width="1" height="1" shape-rendering="crispEdges" style="fill:#d9d9d9;opacity:255;"></rect><rect id="1-5" x="0" y="4" width="1" height="1" shape-rendering="crispEdges" style="fill:#c7c7c7;opacity:255;"></rect><rect id="2-5" x="1" y="4" width="1" height="1" shape-rendering="crispEdges" style="fill:#c7c7c7;opacity:255;"></rect><rect id="3-5" x="2" y="4" width="1" height="1" shape-rendering="crispEdges" style="fill:#c7c7c7;opacity:255;"></rect><rect id="4-5" x="3" y="4" width="1" height="1" shape-rendering="crispEdges" style="fill:#c7c7c7;opacity:255;"></rect><rect id="1-6" x="0" y="5" width="1" height="1" shape-rendering="crispEdges" style="fill:#c7c7c7;opacity:255;"></rect><rect id="2-6" x="1" y="5" width="1" height="1" shape-rendering="crispEdges" style="fill:#c7c7c7;opacity:255;"></rect><rect id="3-6" x="2" y="5" width="1" height="1" shape-rendering="crispEdges" style="fill:#c7c7c7;opacity:255;"></rect><rect id="4-6" x="3" y="5" width="1" height="1" shape-rendering="crispEdges" style="fill:#c7c7c7;opacity:255;"></rect><rect id="1-7" x="0" y="6" width="1" height="1" shape-rendering="crispEdges" style="fill:#c7c7c7;opacity:255;"></rect><rect id="2-7" x="1" y="6" width="1" height="1" shape-rendering="crispEdges" style="fill:#c7c7c7;opacity:255;"></rect><rect id="3-7" x="2" y="6" width="1" height="1" shape-rendering="crispEdges" style="fill:#c7c7c7;opacity:255;"></rect><rect id="4-7" x="3" y="6" width="1" height="1" shape-rendering="crispEdges" style="fill:#c7c7c7;opacity:255;"></rect><rect id="1-8" x="0" y="7" width="1" height="1" shape-rendering="crispEdges" style="fill:#c7c7c7;opacity:255;"></rect><rect id="2-8" x="1" y="7" width="1" height="1" shape-rendering="crispEdges" style="fill:#c7c7c7;opacity:255;"></rect><rect id="3-8" x="2" y="7" width="1" height="1" shape-rendering="crispEdges" style="fill:#c7c7c7;opacity:255;"></rect><rect id="4-8" x="3" y="7" width="1" height="1" shape-rendering="crispEdges" style="fill:#c7c7c7;opacity:255;"></rect><rect id="1-9" x="0" y="8" width="1" height="1" shape-rendering="crispEdges" style="fill:#b4b4b4;opacity:255;"></rect><rect id="2-9" x="1" y="8" width="1" height="1" shape-rendering="crispEdges" style="fill:#b4b4b4;opacity:255;"></rect><rect id="3-9" x="2" y="8" width="1" height="1" shape-rendering="crispEdges" style="fill:#c7c7c7;opacity:255;"></rect><rect id="4-9" x="3" y="8" width="1" height="1" shape-rendering="crispEdges" style="fill:#c7c7c7;opacity:255;"></rect><rect id="1-10" x="0" y="9" width="1" height="1" shape-rendering="crispEdges" style="fill:#b4b4b4;opacity:255;"></rect><rect id="2-10" x="1" y="9" width="1" height="1" shape-rendering="crispEdges" style="fill:#b4b4b4;opacity:255;"></rect><rect id="3-10" x="2" y="9" width="1" height="1" shape-rendering="crispEdges" style="fill:#c7c7c7;opacity:255;"></rect><rect id="4-10" x="3" y="9" width="1" height="1" shape-rendering="crispEdges" style="fill:#c7c7c7;opacity:255;"></rect><rect id="1-11" x="0" y="10" width="1" height="1" shape-rendering="crispEdges" style="fill:#c7c7c7;opacity:255;"></rect><rect id="2-11" x="1" y="10" width="1" height="1" shape-rendering="crispEdges" style="fill:#c7c7c7;opacity:255;"></rect><rect id="3-11" x="2" y="10" width="1" height="1" shape-rendering="crispEdges" style="fill:#b4b4b4;opacity:255;"></rect><rect id="4-11" x="3" y="10" width="1" height="1" shape-rendering="crispEdges" style="fill:#b4b4b4;opacity:255;"></rect><rect id="1-12" x="0" y="11" width="1" height="1" shape-rendering="crispEdges" style="fill:#c7c7c7;opacity:255;"></rect><rect id="2-12" x="1" y="11" width="1" height="1" shape-rendering="crispEdges" style="fill:#c7c7c7;opacity:255;"></rect><rect id="3-12" x="2" y="11" width="1" height="1" shape-rendering="crispEdges" style="fill:#b4b4b4;opacity:255;"></rect><rect id="4-12" x="3" y="11" width="1" height="1" shape-rendering="crispEdges" style="fill:#b4b4b4;opacity:255;"></rect><rect id="1-13" x="0" y="12" width="1" height="1" shape-rendering="crispEdges" style="fill:#b4b4b4;opacity:255;"></rect><rect id="2-13" x="1" y="12" width="1" height="1" shape-rendering="crispEdges" style="fill:#b4b4b4;opacity:255;"></rect><rect id="3-13" x="2" y="12" width="1" height="1" shape-rendering="crispEdges" style="fill:#b4b4b4;opacity:255;"></rect><rect id="4-13" x="3" y="12" width="1" height="1" shape-rendering="crispEdges" style="fill:#b4b4b4;opacity:255;"></rect><rect id="1-14" x="0" y="13" width="1" height="1" shape-rendering="crispEdges" style="fill:#b4b4b4;opacity:255;"></rect><rect id="2-14" x="1" y="13" width="1" height="1" shape-rendering="crispEdges" style="fill:#b4b4b4;opacity:255;"></rect><rect id="3-14" x="2" y="13" width="1" height="1" shape-rendering="crispEdges" style="fill:#b4b4b4;opacity:255;"></rect><rect id="4-14" x="3" y="13" width="1" height="1" shape-rendering="crispEdges" style="fill:#b4b4b4;opacity:255;"></rect><rect id="1-15" x="0" y="14" width="1" height="1" shape-rendering="crispEdges" style="fill:#b4b4b4;opacity:255;"></rect><rect id="2-15" x="1" y="14" width="1" height="1" shape-rendering="crispEdges" style="fill:#b4b4b4;opacity:255;"></rect><rect id="3-15" x="2" y="14" width="1" height="1" shape-rendering="crispEdges" style="fill:#b4b4b4;opacity:255;"></rect><rect id="4-15" x="3" y="14" width="1" height="1" shape-rendering="crispEdges" style="fill:#b4b4b4;opacity:255;"></rect><rect id="1-16" x="0" y="15" width="1" height="1" shape-rendering="crispEdges" style="fill:#b4b4b4;opacity:255;"></rect><rect id="2-16" x="1" y="15" width="1" height="1" shape-rendering="crispEdges" style="fill:#b4b4b4;opacity:255;"></rect><rect id="3-16" x="2" y="15" width="1" height="1" shape-rendering="crispEdges" style="fill:#b4b4b4;opacity:255;"></rect><rect id="4-16" x="3" y="15" width="1" height="1" shape-rendering="crispEdges" style="fill:#b4b4b4;opacity:255;"></rect><rect id="1-17" x="0" y="16" width="1" height="1" shape-rendering="crispEdges" style="fill:#9d9d9d;opacity:255;"></rect><rect id="2-17" x="1" y="16" width="1" height="1" shape-rendering="crispEdges" style="fill:#9d9d9d;opacity:255;"></rect><rect id="3-17" x="2" y="16" width="1" height="1" shape-rendering="crispEdges" style="fill:#b4b4b4;opacity:255;"></rect><rect id="4-17" x="3" y="16" width="1" height="1" shape-rendering="crispEdges" style="fill:#b4b4b4;opacity:255;"></rect><rect id="1-18" x="0" y="17" width="1" height="1" shape-rendering="crispEdges" style="fill:#9d9d9d;opacity:255;"></rect><rect id="2-18" x="1" y="17" width="1" height="1" shape-rendering="crispEdges" style="fill:#9d9d9d;opacity:255;"></rect><rect id="3-18" x="2" y="17" width="1" height="1" shape-rendering="crispEdges" style="fill:#b4b4b4;opacity:255;"></rect><rect id="4-18" x="3" y="17" width="1" height="1" shape-rendering="crispEdges" style="fill:#b4b4b4;opacity:255;"></rect><rect id="1-19" x="0" y="18" width="1" height="1" shape-rendering="crispEdges" style="fill:#b4b4b4;opacity:255;"></rect><rect id="2-19" x="1" y="18" width="1" height="1" shape-rendering="crispEdges" style="fill:#b4b4b4;opacity:255;"></rect><rect id="3-19" x="2" y="18" width="1" height="1" shape-rendering="crispEdges" style="fill:#9d9d9d;opacity:255;"></rect><rect id="4-19" x="3" y="18" width="1" height="1" shape-rendering="crispEdges" style="fill:#9d9d9d;opacity:255;"></rect><rect id="1-20" x="0" y="19" width="1" height="1" shape-rendering="crispEdges" style="fill:#b4b4b4;opacity:255;"></rect><rect id="2-20" x="1" y="19" width="1" height="1" shape-rendering="crispEdges" style="fill:#b4b4b4;opacity:255;"></rect><rect id="3-20" x="2" y="19" width="1" height="1" shape-rendering="crispEdges" style="fill:#9d9d9d;opacity:255;"></rect><rect id="4-20" x="3" y="19" width="1" height="1" shape-rendering="crispEdges" style="fill:#9d9d9d;opacity:255;"></rect><rect id="1-21" x="0" y="20" width="1" height="1" shape-rendering="crispEdges" style="fill:#9d9d9d;opacity:255;"></rect><rect id="2-21" x="1" y="20" width="1" height="1" shape-rendering="crispEdges" style="fill:#9d9d9d;opacity:255;"></rect><rect id="3-21" x="2" y="20" width="1" height="1" shape-rendering="crispEdges" style="fill:#b4b4b4;opacity:255;"></rect><rect id="4-21" x="3" y="20" width="1" height="1" shape-rendering="crispEdges" style="fill:#b4b4b4;opacity:255;"></rect><rect id="1-22" x="0" y="21" width="1" height="1" shape-rendering="crispEdges" style="fill:#9d9d9d;opacity:255;"></rect><rect id="2-22" x="1" y="21" width="1" height="1" shape-rendering="crispEdges" style="fill:#9d9d9d;opacity:255;"></rect><rect id="3-22" x="2" y="21" width="1" height="1" shape-rendering="crispEdges" style="fill:#b4b4b4;opacity:255;"></rect><rect id="4-22" x="3" y="21" width="1" height="1" shape-rendering="crispEdges" style="fill:#b4b4b4;opacity:255;"></rect><rect id="1-23" x="0" y="22" width="1" height="1" shape-rendering="crispEdges" style="fill:#9d9d9d;opacity:255;"></rect><rect id="2-23" x="1" y="22" width="1" height="1" shape-rendering="crispEdges" style="fill:#9d9d9d;opacity:255;"></rect><rect id="3-23" x="2" y="22" width="1" height="1" shape-rendering="crispEdges" style="fill:#9d9d9d;opacity:255;"></rect><rect id="4-23" x="3" y="22" width="1" height="1" shape-rendering="crispEdges" style="fill:#9d9d9d;opacity:255;"></rect><rect id="1-24" x="0" y="23" width="1" height="1" shape-rendering="crispEdges" style="fill:#9d9d9d;opacity:255;"></rect><rect id="2-24" x="1" y="23" width="1" height="1" shape-rendering="crispEdges" style="fill:#9d9d9d;opacity:255;"></rect><rect id="3-24" x="2" y="23" width="1" height="1" shape-rendering="crispEdges" style="fill:#9d9d9d;opacity:255;"></rect><rect id="4-24" x="3" y="23" width="1" height="1" shape-rendering="crispEdges" style="fill:#9d9d9d;opacity:255;"></rect><rect id="1-25" x="0" y="24" width="1" height="1" shape-rendering="crispEdges" style="fill:#9d9d9d;opacity:255;"></rect><rect id="2-25" x="1" y="24" width="1" height="1" shape-rendering="crispEdges" style="fill:#9d9d9d;opacity:255;"></rect><rect id="3-25" x="2" y="24" width="1" height="1" shape-rendering="crispEdges" style="fill:#9d9d9d;opacity:255;"></rect><rect id="4-25" x="3" y="24" width="1" height="1" shape-rendering="crispEdges" style="fill:#9d9d9d;opacity:255;"></rect><rect id="1-26" x="0" y="25" width="1" height="1" shape-rendering="crispEdges" style="fill:#9d9d9d;opacity:255;"></rect><rect id="2-26" x="1" y="25" width="1" height="1" shape-rendering="crispEdges" style="fill:#9d9d9d;opacity:255;"></rect><rect id="3-26" x="2" y="25" width="1" height="1" shape-rendering="crispEdges" style="fill:#9d9d9d;opacity:255;"></rect><rect id="4-26" x="3" y="25" width="1" height="1" shape-rendering="crispEdges" style="fill:#9d9d9d;opacity:255;"></rect><rect id="1-27" x="0" y="26" width="1" height="1" shape-rendering="crispEdges" style="fill:#8a8a8a;opacity:255;"></rect><rect id="2-27" x="1" y="26" width="1" height="1" shape-rendering="crispEdges" style="fill:#8a8a8a;opacity:255;"></rect><rect id="3-27" x="2" y="26" width="1" height="1" shape-rendering="crispEdges" style="fill:#9d9d9d;opacity:255;"></rect><rect id="4-27" x="3" y="26" width="1" height="1" shape-rendering="crispEdges" style="fill:#9d9d9d;opacity:255;"></rect><rect id="1-28" x="0" y="27" width="1" height="1" shape-rendering="crispEdges" style="fill:#8a8a8a;opacity:255;"></rect><rect id="2-28" x="1" y="27" width="1" height="1" shape-rendering="crispEdges" style="fill:#8a8a8a;opacity:255;"></rect><rect id="3-28" x="2" y="27" width="1" height="1" shape-rendering="crispEdges" style="fill:#9d9d9d;opacity:255;"></rect><rect id="4-28" x="3" y="27" width="1" height="1" shape-rendering="crispEdges" style="fill:#9d9d9d;opacity:255;"></rect><rect id="1-29" x="0" y="28" width="1" height="1" shape-rendering="crispEdges" style="fill:#9d9d9d;opacity:255;"></rect><rect id="2-29" x="1" y="28" width="1" height="1" shape-rendering="crispEdges" style="fill:#9d9d9d;opacity:255;"></rect><rect id="3-29" x="2" y="28" width="1" height="1" shape-rendering="crispEdges" style="fill:#8a8a8a;opacity:255;"></rect><rect id="4-29" x="3" y="28" width="1" height="1" shape-rendering="crispEdges" style="fill:#8a8a8a;opacity:255;"></rect><rect id="1-30" x="0" y="29" width="1" height="1" shape-rendering="crispEdges" style="fill:#9d9d9d;opacity:255;"></rect><rect id="2-30" x="1" y="29" width="1" height="1" shape-rendering="crispEdges" style="fill:#9d9d9d;opacity:255;"></rect><rect id="3-30" x="2" y="29" width="1" height="1" shape-rendering="crispEdges" style="fill:#8a8a8a;opacity:255;"></rect><rect id="4-30" x="3" y="29" width="1" height="1" shape-rendering="crispEdges" style="fill:#8a8a8a;opacity:255;"></rect><rect id="1-31" x="0" y="30" width="1" height="1" shape-rendering="crispEdges" style="fill:#8a8a8a;opacity:255;"></rect><rect id="2-31" x="1" y="30" width="1" height="1" shape-rendering="crispEdges" style="fill:#8a8a8a;opacity:255;"></rect><rect id="3-31" x="2" y="30" width="1" height="1" shape-rendering="crispEdges" style="fill:#8a8a8a;opacity:255;"></rect><rect id="4-31" x="3" y="30" width="1" height="1" shape-rendering="crispEdges" style="fill:#8a8a8a;opacity:255;"></rect><rect id="1-32" x="0" y="31" width="1" height="1" shape-rendering="crispEdges" style="fill:#8a8a8a;opacity:255;"></rect><rect id="2-32" x="1" y="31" width="1" height="1" shape-rendering="crispEdges" style="fill:#8a8a8a;opacity:255;"></rect><rect id="3-32" x="2" y="31" width="1" height="1" shape-rendering="crispEdges" style="fill:#8a8a8a;opacity:255;"></rect><rect id="4-32" x="3" y="31" width="1" height="1" shape-rendering="crispEdges" style="fill:#8a8a8a;opacity:255;"></rect><rect id="1-33" x="0" y="32" width="1" height="1" shape-rendering="crispEdges" style="fill:#8a8a8a;opacity:255;"></rect><rect id="2-33" x="1" y="32" width="1" height="1" shape-rendering="crispEdges" style="fill:#8a8a8a;opacity:255;"></rect><rect id="3-33" x="2" y="32" width="1" height="1" shape-rendering="crispEdges" style="fill:#8a8a8a;opacity:255;"></rect><rect id="4-33" x="3" y="32" width="1" height="1" shape-rendering="crispEdges" style="fill:#8a8a8a;opacity:255;"></rect><rect id="1-34" x="0" y="33" width="1" height="1" shape-rendering="crispEdges" style="fill:#8a8a8a;opacity:255;"></rect><rect id="2-34" x="1" y="33" width="1" height="1" shape-rendering="crispEdges" style="fill:#8a8a8a;opacity:255;"></rect><rect id="3-34" x="2" y="33" width="1" height="1" shape-rendering="crispEdges" style="fill:#8a8a8a;opacity:255;"></rect><rect id="4-34" x="3" y="33" width="1" height="1" shape-rendering="crispEdges" style="fill:#8a8a8a;opacity:255;"></rect><rect id="1-35" x="0" y="34" width="1" height="1" shape-rendering="crispEdges" style="fill:#838383;opacity:255;"></rect><rect id="2-35" x="1" y="34" width="1" height="1" shape-rendering="crispEdges" style="fill:#838383;opacity:255;"></rect><rect id="3-35" x="2" y="34" width="1" height="1" shape-rendering="crispEdges" style="fill:#838383;opacity:255;"></rect><rect id="4-35" x="3" y="34" width="1" height="1" shape-rendering="crispEdges" style="fill:#838383;opacity:255;"></rect><rect id="1-36" x="0" y="35" width="1" height="1" shape-rendering="crispEdges" style="fill:#838383;opacity:255;"></rect><rect id="2-36" x="1" y="35" width="1" height="1" shape-rendering="crispEdges" style="fill:#838383;opacity:255;"></rect><rect id="3-36" x="2" y="35" width="1" height="1" shape-rendering="crispEdges" style="fill:#838383;opacity:255;"></rect><rect id="4-36" x="3" y="35" width="1" height="1" shape-rendering="crispEdges" style="fill:#838383;opacity:255;"></rect><rect id="1-37" x="0" y="36" width="1" height="1" shape-rendering="crispEdges" style="fill:#838383;opacity:255;"></rect><rect id="2-37" x="1" y="36" width="1" height="1" shape-rendering="crispEdges" style="fill:#838383;opacity:255;"></rect><rect id="3-37" x="2" y="36" width="1" height="1" shape-rendering="crispEdges" style="fill:#838383;opacity:255;"></rect><rect id="4-37" x="3" y="36" width="1" height="1" shape-rendering="crispEdges" style="fill:#838383;opacity:255;"></rect><rect id="1-38" x="0" y="37" width="1" height="1" shape-rendering="crispEdges" style="fill:#838383;opacity:255;"></rect><rect id="2-38" x="1" y="37" width="1" height="1" shape-rendering="crispEdges" style="fill:#838383;opacity:255;"></rect><rect id="3-38" x="2" y="37" width="1" height="1" shape-rendering="crispEdges" style="fill:#838383;opacity:255;"></rect><rect id="4-38" x="3" y="37" width="1" height="1" shape-rendering="crispEdges" style="fill:#838383;opacity:255;"></rect><rect id="1-39" x="0" y="38" width="1" height="1" shape-rendering="crispEdges" style="fill:#838383;opacity:255;"></rect><rect id="2-39" x="1" y="38" width="1" height="1" shape-rendering="crispEdges" style="fill:#838383;opacity:255;"></rect><rect id="3-39" x="2" y="38" width="1" height="1" shape-rendering="crispEdges" style="fill:#838383;opacity:255;"></rect><rect id="4-39" x="3" y="38" width="1" height="1" shape-rendering="crispEdges" style="fill:#838383;opacity:255;"></rect><rect id="1-40" x="0" y="39" width="1" height="1" shape-rendering="crispEdges" style="fill:#838383;opacity:255;"></rect><rect id="2-40" x="1" y="39" width="1" height="1" shape-rendering="crispEdges" style="fill:#838383;opacity:255;"></rect><rect id="3-40" x="2" y="39" width="1" height="1" shape-rendering="crispEdges" style="fill:#838383;opacity:255;"></rect><rect id="4-40" x="3" y="39" width="1" height="1" shape-rendering="crispEdges" style="fill:#838383;opacity:255;"></rect><rect id="1-41" x="0" y="40" width="1" height="1" shape-rendering="crispEdges" style="fill:#7b7b7b;opacity:255;"></rect><rect id="2-41" x="1" y="40" width="1" height="1" shape-rendering="crispEdges" style="fill:#7b7b7b;opacity:255;"></rect><rect id="3-41" x="2" y="40" width="1" height="1" shape-rendering="crispEdges" style="fill:#7b7b7b;opacity:255;"></rect><rect id="4-41" x="3" y="40" width="1" height="1" shape-rendering="crispEdges" style="fill:#7b7b7b;opacity:255;"></rect><rect id="1-42" x="0" y="41" width="1" height="1" shape-rendering="crispEdges" style="fill:#7b7b7b;opacity:255;"></rect><rect id="2-42" x="1" y="41" width="1" height="1" shape-rendering="crispEdges" style="fill:#7b7b7b;opacity:255;"></rect><rect id="3-42" x="2" y="41" width="1" height="1" shape-rendering="crispEdges" style="fill:#7b7b7b;opacity:255;"></rect><rect id="4-42" x="3" y="41" width="1" height="1" shape-rendering="crispEdges" style="fill:#7b7b7b;opacity:255;"></rect><rect id="1-43" x="0" y="42" width="1" height="1" shape-rendering="crispEdges" style="fill:#7b7b7b;opacity:255;"></rect><rect id="2-43" x="1" y="42" width="1" height="1" shape-rendering="crispEdges" style="fill:#7b7b7b;opacity:255;"></rect><rect id="3-43" x="2" y="42" width="1" height="1" shape-rendering="crispEdges" style="fill:#7b7b7b;opacity:255;"></rect><rect id="4-43" x="3" y="42" width="1" height="1" shape-rendering="crispEdges" style="fill:#7b7b7b;opacity:255;"></rect><rect id="1-44" x="0" y="43" width="1" height="1" shape-rendering="crispEdges" style="fill:#7b7b7b;opacity:255;"></rect><rect id="2-44" x="1" y="43" width="1" height="1" shape-rendering="crispEdges" style="fill:#7b7b7b;opacity:255;"></rect><rect id="3-44" x="2" y="43" width="1" height="1" shape-rendering="crispEdges" style="fill:#7b7b7b;opacity:255;"></rect><rect id="4-44" x="3" y="43" width="1" height="1" shape-rendering="crispEdges" style="fill:#7b7b7b;opacity:255;"></rect><rect id="1-45" x="0" y="44" width="1" height="1" shape-rendering="crispEdges" style="fill:#7b7b7b;opacity:255;"></rect><rect id="2-45" x="1" y="44" width="1" height="1" shape-rendering="crispEdges" style="fill:#7b7b7b;opacity:255;"></rect><rect id="3-45" x="2" y="44" width="1" height="1" shape-rendering="crispEdges" style="fill:#7b7b7b;opacity:255;"></rect><rect id="4-45" x="3" y="44" width="1" height="1" shape-rendering="crispEdges" style="fill:#7b7b7b;opacity:255;"></rect><rect id="1-46" x="0" y="45" width="1" height="1" shape-rendering="crispEdges" style="fill:#7b7b7b;opacity:255;"></rect><rect id="2-46" x="1" y="45" width="1" height="1" shape-rendering="crispEdges" style="fill:#7b7b7b;opacity:255;"></rect><rect id="3-46" x="2" y="45" width="1" height="1" shape-rendering="crispEdges" style="fill:#7b7b7b;opacity:255;"></rect><rect id="4-46" x="3" y="45" width="1" height="1" shape-rendering="crispEdges" style="fill:#7b7b7b;opacity:255;"></rect></svg>