<?xml version="1.0" encoding="UTF-8" standalone="no"?><svg xmlns="http://www.w3.org/2000/svg" id="info_border" width="12" height="12" viewBox="0 0 12 12" preserveAspectRatio="xMidYMid meet" rendering="crispEdges"><rect id="1-1" x="0" y="0" width="1" height="1" shape-rendering="crispEdges" style="fill:#000000;opacity:255;"></rect><rect id="2-1" x="1" y="0" width="1" height="1" shape-rendering="crispEdges" style="fill:#000000;opacity:255;"></rect><rect id="3-1" x="2" y="0" width="1" height="1" shape-rendering="crispEdges" style="fill:#000000;opacity:255;"></rect><rect id="4-1" x="3" y="0" width="1" height="1" shape-rendering="crispEdges" style="fill:#000000;opacity:255;"></rect><rect id="5-1" x="4" y="0" width="1" height="1" shape-rendering="crispEdges" style="fill:#fbfbfb;opacity:255;"></rect><rect id="6-1" x="5" y="0" width="1" height="1" shape-rendering="crispEdges" style="fill:#fbfbfb;opacity:255;"></rect><rect id="7-1" x="6" y="0" width="1" height="1" shape-rendering="crispEdges" style="fill:#fbfbfb;opacity:255;"></rect><rect id="8-1" x="7" y="0" width="1" height="1" shape-rendering="crispEdges" style="fill:#fbfbfb;opacity:255;"></rect><rect id="9-1" x="8" y="0" width="1" height="1" shape-rendering="crispEdges" style="fill:#000000;opacity:255;"></rect><rect id="10-1" x="9" y="0" width="1" height="1" shape-rendering="crispEdges" style="fill:#000000;opacity:255;"></rect><rect id="11-1" x="10" y="0" width="1" height="1" shape-rendering="crispEdges" style="fill:#000000;opacity:255;"></rect><rect id="12-1" x="11" y="0" width="1" height="1" shape-rendering="crispEdges" style="fill:#000000;opacity:255;"></rect><rect id="1-2" x="0" y="1" width="1" height="1" shape-rendering="crispEdges" style="fill:#000000;opacity:255;"></rect><rect id="2-2" x="1" y="1" width="1" height="1" shape-rendering="crispEdges" style="fill:#000000;opacity:255;"></rect><rect id="3-2" x="2" y="1" width="1" height="1" shape-rendering="crispEdges" style="fill:#000000;opacity:255;"></rect><rect id="4-2" x="3" y="1" width="1" height="1" shape-rendering="crispEdges" style="fill:#000000;opacity:255;"></rect><rect id="5-2" x="4" y="1" width="1" height="1" shape-rendering="crispEdges" style="fill:#fbfbfb;opacity:255;"></rect><rect id="6-2" x="5" y="1" width="1" height="1" shape-rendering="crispEdges" style="fill:#fbfbfb;opacity:255;"></rect><rect id="7-2" x="6" y="1" width="1" height="1" shape-rendering="crispEdges" style="fill:#fbfbfb;opacity:255;"></rect><rect id="8-2" x="7" y="1" width="1" height="1" shape-rendering="crispEdges" style="fill:#fbfbfb;opacity:255;"></rect><rect id="9-2" x="8" y="1" width="1" height="1" shape-rendering="crispEdges" style="fill:#000000;opacity:255;"></rect><rect id="10-2" x="9" y="1" width="1" height="1" shape-rendering="crispEdges" style="fill:#000000;opacity:255;"></rect><rect id="11-2" x="10" y="1" width="1" height="1" shape-rendering="crispEdges" style="fill:#000000;opacity:255;"></rect><rect id="12-2" x="11" y="1" width="1" height="1" shape-rendering="crispEdges" style="fill:#000000;opacity:255;"></rect><rect id="1-3" x="0" y="2" width="1" height="1" shape-rendering="crispEdges" style="fill:#000000;opacity:255;"></rect><rect id="2-3" x="1" y="2" width="1" height="1" shape-rendering="crispEdges" style="fill:#000000;opacity:255;"></rect><rect id="3-3" x="2" y="2" width="1" height="1" shape-rendering="crispEdges" style="fill:#fbfbfb;opacity:255;"></rect><rect id="4-3" x="3" y="2" width="1" height="1" shape-rendering="crispEdges" style="fill:#fbfbfb;opacity:255;"></rect><rect id="5-3" x="4" y="2" width="1" height="1" shape-rendering="crispEdges" style="fill:#797979;opacity:255;"></rect><rect id="6-3" x="5" y="2" width="1" height="1" shape-rendering="crispEdges" style="fill:#797979;opacity:255;"></rect><rect id="7-3" x="6" y="2" width="1" height="1" shape-rendering="crispEdges" style="fill:#797979;opacity:255;"></rect><rect id="8-3" x="7" y="2" width="1" height="1" shape-rendering="crispEdges" style="fill:#797979;opacity:255;"></rect><rect id="9-3" x="8" y="2" width="1" height="1" shape-rendering="crispEdges" style="fill:#fbfbfb;opacity:255;"></rect><rect id="10-3" x="9" y="2" width="1" height="1" shape-rendering="crispEdges" style="fill:#fbfbfb;opacity:255;"></rect><rect id="11-3" x="10" y="2" width="1" height="1" shape-rendering="crispEdges" style="fill:#000000;opacity:255;"></rect><rect id="12-3" x="11" y="2" width="1" height="1" shape-rendering="crispEdges" style="fill:#000000;opacity:255;"></rect><rect id="1-4" x="0" y="3" width="1" height="1" shape-rendering="crispEdges" style="fill:#000000;opacity:255;"></rect><rect id="2-4" x="1" y="3" width="1" height="1" shape-rendering="crispEdges" style="fill:#000000;opacity:255;"></rect><rect id="3-4" x="2" y="3" width="1" height="1" shape-rendering="crispEdges" style="fill:#fbfbfb;opacity:255;"></rect><rect id="4-4" x="3" y="3" width="1" height="1" shape-rendering="crispEdges" style="fill:#fbfbfb;opacity:255;"></rect><rect id="5-4" x="4" y="3" width="1" height="1" shape-rendering="crispEdges" style="fill:#797979;opacity:255;"></rect><rect id="6-4" x="5" y="3" width="1" height="1" shape-rendering="crispEdges" style="fill:#797979;opacity:255;"></rect><rect id="7-4" x="6" y="3" width="1" height="1" shape-rendering="crispEdges" style="fill:#797979;opacity:255;"></rect><rect id="8-4" x="7" y="3" width="1" height="1" shape-rendering="crispEdges" style="fill:#797979;opacity:255;"></rect><rect id="9-4" x="8" y="3" width="1" height="1" shape-rendering="crispEdges" style="fill:#fbfbfb;opacity:255;"></rect><rect id="10-4" x="9" y="3" width="1" height="1" shape-rendering="crispEdges" style="fill:#fbfbfb;opacity:255;"></rect><rect id="11-4" x="10" y="3" width="1" height="1" shape-rendering="crispEdges" style="fill:#000000;opacity:255;"></rect><rect id="12-4" x="11" y="3" width="1" height="1" shape-rendering="crispEdges" style="fill:#000000;opacity:255;"></rect><rect id="1-5" x="0" y="4" width="1" height="1" shape-rendering="crispEdges" style="fill:#fbfbfb;opacity:255;"></rect><rect id="2-5" x="1" y="4" width="1" height="1" shape-rendering="crispEdges" style="fill:#fbfbfb;opacity:255;"></rect><rect id="3-5" x="2" y="4" width="1" height="1" shape-rendering="crispEdges" style="fill:#797979;opacity:255;"></rect><rect id="4-5" x="3" y="4" width="1" height="1" shape-rendering="crispEdges" style="fill:#797979;opacity:255;"></rect><rect id="9-5" x="8" y="4" width="1" height="1" shape-rendering="crispEdges" style="fill:#797979;opacity:255;"></rect><rect id="10-5" x="9" y="4" width="1" height="1" shape-rendering="crispEdges" style="fill:#797979;opacity:255;"></rect><rect id="11-5" x="10" y="4" width="1" height="1" shape-rendering="crispEdges" style="fill:#fbfbfb;opacity:255;"></rect><rect id="12-5" x="11" y="4" width="1" height="1" shape-rendering="crispEdges" style="fill:#fbfbfb;opacity:255;"></rect><rect id="1-6" x="0" y="5" width="1" height="1" shape-rendering="crispEdges" style="fill:#fbfbfb;opacity:255;"></rect><rect id="2-6" x="1" y="5" width="1" height="1" shape-rendering="crispEdges" style="fill:#fbfbfb;opacity:255;"></rect><rect id="3-6" x="2" y="5" width="1" height="1" shape-rendering="crispEdges" style="fill:#797979;opacity:255;"></rect><rect id="4-6" x="3" y="5" width="1" height="1" shape-rendering="crispEdges" style="fill:#797979;opacity:255;"></rect><rect id="9-6" x="8" y="5" width="1" height="1" shape-rendering="crispEdges" style="fill:#797979;opacity:255;"></rect><rect id="10-6" x="9" y="5" width="1" height="1" shape-rendering="crispEdges" style="fill:#797979;opacity:255;"></rect><rect id="11-6" x="10" y="5" width="1" height="1" shape-rendering="crispEdges" style="fill:#fbfbfb;opacity:255;"></rect><rect id="12-6" x="11" y="5" width="1" height="1" shape-rendering="crispEdges" style="fill:#fbfbfb;opacity:255;"></rect><rect id="1-7" x="0" y="6" width="1" height="1" shape-rendering="crispEdges" style="fill:#fbfbfb;opacity:255;"></rect><rect id="2-7" x="1" y="6" width="1" height="1" shape-rendering="crispEdges" style="fill:#fbfbfb;opacity:255;"></rect><rect id="3-7" x="2" y="6" width="1" height="1" shape-rendering="crispEdges" style="fill:#797979;opacity:255;"></rect><rect id="4-7" x="3" y="6" width="1" height="1" shape-rendering="crispEdges" style="fill:#797979;opacity:255;"></rect><rect id="9-7" x="8" y="6" width="1" height="1" shape-rendering="crispEdges" style="fill:#797979;opacity:255;"></rect><rect id="10-7" x="9" y="6" width="1" height="1" shape-rendering="crispEdges" style="fill:#797979;opacity:255;"></rect><rect id="11-7" x="10" y="6" width="1" height="1" shape-rendering="crispEdges" style="fill:#fbfbfb;opacity:255;"></rect><rect id="12-7" x="11" y="6" width="1" height="1" shape-rendering="crispEdges" style="fill:#fbfbfb;opacity:255;"></rect><rect id="1-8" x="0" y="7" width="1" height="1" shape-rendering="crispEdges" style="fill:#fbfbfb;opacity:255;"></rect><rect id="2-8" x="1" y="7" width="1" height="1" shape-rendering="crispEdges" style="fill:#fbfbfb;opacity:255;"></rect><rect id="3-8" x="2" y="7" width="1" height="1" shape-rendering="crispEdges" style="fill:#797979;opacity:255;"></rect><rect id="4-8" x="3" y="7" width="1" height="1" shape-rendering="crispEdges" style="fill:#797979;opacity:255;"></rect><rect id="9-8" x="8" y="7" width="1" height="1" shape-rendering="crispEdges" style="fill:#797979;opacity:255;"></rect><rect id="10-8" x="9" y="7" width="1" height="1" shape-rendering="crispEdges" style="fill:#797979;opacity:255;"></rect><rect id="11-8" x="10" y="7" width="1" height="1" shape-rendering="crispEdges" style="fill:#fbfbfb;opacity:255;"></rect><rect id="12-8" x="11" y="7" width="1" height="1" shape-rendering="crispEdges" style="fill:#fbfbfb;opacity:255;"></rect><rect id="1-9" x="0" y="8" width="1" height="1" shape-rendering="crispEdges" style="fill:#000000;opacity:255;"></rect><rect id="2-9" x="1" y="8" width="1" height="1" shape-rendering="crispEdges" style="fill:#000000;opacity:255;"></rect><rect id="3-9" x="2" y="8" width="1" height="1" shape-rendering="crispEdges" style="fill:#fbfbfb;opacity:255;"></rect><rect id="4-9" x="3" y="8" width="1" height="1" shape-rendering="crispEdges" style="fill:#fbfbfb;opacity:255;"></rect><rect id="5-9" x="4" y="8" width="1" height="1" shape-rendering="crispEdges" style="fill:#797979;opacity:255;"></rect><rect id="6-9" x="5" y="8" width="1" height="1" shape-rendering="crispEdges" style="fill:#797979;opacity:255;"></rect><rect id="7-9" x="6" y="8" width="1" height="1" shape-rendering="crispEdges" style="fill:#797979;opacity:255;"></rect><rect id="8-9" x="7" y="8" width="1" height="1" shape-rendering="crispEdges" style="fill:#797979;opacity:255;"></rect><rect id="9-9" x="8" y="8" width="1" height="1" shape-rendering="crispEdges" style="fill:#fbfbfb;opacity:255;"></rect><rect id="10-9" x="9" y="8" width="1" height="1" shape-rendering="crispEdges" style="fill:#fbfbfb;opacity:255;"></rect><rect id="11-9" x="10" y="8" width="1" height="1" shape-rendering="crispEdges" style="fill:#000000;opacity:255;"></rect><rect id="12-9" x="11" y="8" width="1" height="1" shape-rendering="crispEdges" style="fill:#000000;opacity:255;"></rect><rect id="1-10" x="0" y="9" width="1" height="1" shape-rendering="crispEdges" style="fill:#000000;opacity:255;"></rect><rect id="2-10" x="1" y="9" width="1" height="1" shape-rendering="crispEdges" style="fill:#000000;opacity:255;"></rect><rect id="3-10" x="2" y="9" width="1" height="1" shape-rendering="crispEdges" style="fill:#fbfbfb;opacity:255;"></rect><rect id="4-10" x="3" y="9" width="1" height="1" shape-rendering="crispEdges" style="fill:#fbfbfb;opacity:255;"></rect><rect id="5-10" x="4" y="9" width="1" height="1" shape-rendering="crispEdges" style="fill:#797979;opacity:255;"></rect><rect id="6-10" x="5" y="9" width="1" height="1" shape-rendering="crispEdges" style="fill:#797979;opacity:255;"></rect><rect id="7-10" x="6" y="9" width="1" height="1" shape-rendering="crispEdges" style="fill:#797979;opacity:255;"></rect><rect id="8-10" x="7" y="9" width="1" height="1" shape-rendering="crispEdges" style="fill:#797979;opacity:255;"></rect><rect id="9-10" x="8" y="9" width="1" height="1" shape-rendering="crispEdges" style="fill:#fbfbfb;opacity:255;"></rect><rect id="10-10" x="9" y="9" width="1" height="1" shape-rendering="crispEdges" style="fill:#fbfbfb;opacity:255;"></rect><rect id="11-10" x="10" y="9" width="1" height="1" shape-rendering="crispEdges" style="fill:#000000;opacity:255;"></rect><rect id="12-10" x="11" y="9" width="1" height="1" shape-rendering="crispEdges" style="fill:#000000;opacity:255;"></rect><rect id="1-11" x="0" y="10" width="1" height="1" shape-rendering="crispEdges" style="fill:#000000;opacity:255;"></rect><rect id="2-11" x="1" y="10" width="1" height="1" shape-rendering="crispEdges" style="fill:#000000;opacity:255;"></rect><rect id="3-11" x="2" y="10" width="1" height="1" shape-rendering="crispEdges" style="fill:#000000;opacity:255;"></rect><rect id="4-11" x="3" y="10" width="1" height="1" shape-rendering="crispEdges" style="fill:#000000;opacity:255;"></rect><rect id="5-11" x="4" y="10" width="1" height="1" shape-rendering="crispEdges" style="fill:#fbfbfb;opacity:255;"></rect><rect id="6-11" x="5" y="10" width="1" height="1" shape-rendering="crispEdges" style="fill:#fbfbfb;opacity:255;"></rect><rect id="7-11" x="6" y="10" width="1" height="1" shape-rendering="crispEdges" style="fill:#fbfbfb;opacity:255;"></rect><rect id="8-11" x="7" y="10" width="1" height="1" shape-rendering="crispEdges" style="fill:#fbfbfb;opacity:255;"></rect><rect id="9-11" x="8" y="10" width="1" height="1" shape-rendering="crispEdges" style="fill:#000000;opacity:255;"></rect><rect id="10-11" x="9" y="10" width="1" height="1" shape-rendering="crispEdges" style="fill:#000000;opacity:255;"></rect><rect id="11-11" x="10" y="10" width="1" height="1" shape-rendering="crispEdges" style="fill:#000000;opacity:255;"></rect><rect id="12-11" x="11" y="10" width="1" height="1" shape-rendering="crispEdges" style="fill:#000000;opacity:255;"></rect><rect id="1-12" x="0" y="11" width="1" height="1" shape-rendering="crispEdges" style="fill:#000000;opacity:255;"></rect><rect id="2-12" x="1" y="11" width="1" height="1" shape-rendering="crispEdges" style="fill:#000000;opacity:255;"></rect><rect id="3-12" x="2" y="11" width="1" height="1" shape-rendering="crispEdges" style="fill:#000000;opacity:255;"></rect><rect id="4-12" x="3" y="11" width="1" height="1" shape-rendering="crispEdges" style="fill:#000000;opacity:255;"></rect><rect id="5-12" x="4" y="11" width="1" height="1" shape-rendering="crispEdges" style="fill:#fbfbfb;opacity:255;"></rect><rect id="6-12" x="5" y="11" width="1" height="1" shape-rendering="crispEdges" style="fill:#fbfbfb;opacity:255;"></rect><rect id="7-12" x="6" y="11" width="1" height="1" shape-rendering="crispEdges" style="fill:#fbfbfb;opacity:255;"></rect><rect id="8-12" x="7" y="11" width="1" height="1" shape-rendering="crispEdges" style="fill:#fbfbfb;opacity:255;"></rect><rect id="9-12" x="8" y="11" width="1" height="1" shape-rendering="crispEdges" style="fill:#000000;opacity:255;"></rect><rect id="10-12" x="9" y="11" width="1" height="1" shape-rendering="crispEdges" style="fill:#000000;opacity:255;"></rect><rect id="11-12" x="10" y="11" width="1" height="1" shape-rendering="crispEdges" style="fill:#000000;opacity:255;"></rect><rect id="12-12" x="11" y="11" width="1" height="1" shape-rendering="crispEdges" style="fill:#000000;opacity:255;"></rect></svg>